<?xml version="1.0" encoding="UTF-8"?>
<svg xmlns="http://www.w3.org/2000/svg" style="display:none">
  <symbol id="icon-clock" viewBox="0 0 24 24"><path fill="currentColor" d="M12 1a11 11 0 1 0 11 11A11.012 11.012 0 0 0 12 1zm1 12.59V7a1 1 0 0 0-2 0v6a1 1 0 0 0 .29.71l3 3a1 1 0 0 0 1.41-1.41z"/></symbol>
  <symbol id="icon-calendar" viewBox="0 0 24 24"><path fill="currentColor" d="M7 10h5v5H7zM19 4h-1V2h-2v2H8V2H6v2H5a2 2 0 0 0-2 2v12a2 2 0 0 0 2 2h14a2 2 0 0 0 2-2V6a2 2 0 0 0-2-2zm0 14H5V9h14z"/></symbol>
  <symbol id="icon-user" viewBox="0 0 24 24"><path fill="currentColor" d="M12 12a5 5 0 1 0-5-5 5 5 0 0 0 5 5zm0 2c-4.33 0-8 2.17-8 4v2h16v-2c0-1.83-3.67-4-8-4z"/></symbol>
  <symbol id="icon-search" viewBox="0 0 24 24"><path fill="currentColor" d="M21 20l-5.6-5.6A7 7 0 1 0 17 17.4L22 22zM5 11a6 6 0 1 1 6 6 6 6 0 0 1-6-6z"/></symbol>
  <symbol id="icon-export" viewBox="0 0 24 24"><path fill="currentColor" d="M13 5h-2v6H7l5 5 5-5h-4zM5 19h14v2H5z"/></symbol>
</svg>